<svg width="32" height="28" viewBox="0 0 32 28" fill="none" xmlns="http://www.w3.org/2000/svg">
<path d="M16 2.33337C14.6815 2.33337 13.3925 2.67549 12.2962 3.31647C11.1999 3.95744 10.3454 4.86848 9.8408 5.93439C9.33622 7.00029 9.2042 8.17318 9.46143 9.30473C9.71867 10.4363 10.3536 11.4757 11.286 12.2915C12.2183 13.1073 13.4062 13.6629 14.6994 13.888C15.9926 14.113 17.333 13.9975 18.5512 13.556C19.7694 13.1145 20.8106 12.3668 21.5431 11.4075C22.2757 10.4482 22.6667 9.32043 22.6667 8.16671C22.6667 6.61961 21.9643 5.13588 20.714 4.04192C19.4638 2.94796 17.7681 2.33337 16 2.33337ZM16 11.6667C15.2089 11.6667 14.4355 11.4614 13.7777 11.0769C13.1199 10.6923 12.6072 10.1456 12.3045 9.5061C12.0017 8.86656 11.9225 8.16282 12.0769 7.48389C12.2312 6.80496 12.6122 6.18132 13.1716 5.69183C13.731 5.20235 14.4437 4.86901 15.2196 4.73396C15.9956 4.59891 16.7998 4.66822 17.5307 4.93313C18.2616 5.19804 18.8864 5.64664 19.3259 6.22221C19.7654 6.79778 20 7.47447 20 8.16671C20 9.09496 19.5786 9.9852 18.8284 10.6416C18.0783 11.298 17.0609 11.6667 16 11.6667ZM28 24.5V23.3334C28 21.1674 27.0167 19.0902 25.2663 17.5587C23.516 16.0271 21.142 15.1667 18.6667 15.1667H13.3333C10.858 15.1667 8.48401 16.0271 6.73367 17.5587C4.98333 19.0902 4 21.1674 4 23.3334V24.5H6.66667V23.3334C6.66667 21.7863 7.36905 20.3025 8.61929 19.2086C9.86953 18.1146 11.5652 17.5 13.3333 17.5H18.6667C20.4348 17.5 22.1305 18.1146 23.3807 19.2086C24.631 20.3025 25.3333 21.7863 25.3333 23.3334V24.5H28Z" fill="black"/>
</svg>
