<svg width="30" height="36" viewBox="0 0 30 36" fill="none" xmlns="http://www.w3.org/2000/svg">
<path d="M4.29123 25.9875L3.84873 29.7C3.82138 29.9304 3.8391 30.1653 3.90048 30.3861C3.96185 30.6069 4.06521 30.8076 4.20236 30.9721C4.33951 31.1367 4.5067 31.2608 4.6907 31.3344C4.8747 31.4081 5.07045 31.4293 5.26248 31.3965L8.35623 30.8655C8.82498 30.786 9.99998 27 9.99998 27C9.99998 27 10.59 27.6075 10.8312 27.699C11.3462 27.894 11.8475 27.288 12.0162 26.673L12.5 24.015C12.5 24.015 13.2212 24.453 13.4825 24.5175C13.815 24.6 14.1375 24.354 14.3662 24.078C14.5036 23.9136 14.6069 23.7127 14.6675 23.4915L15 21.015C15 21.015 15.8437 21.2955 16.1325 21.336C16.4612 21.381 16.7812 21.18 17.0162 20.8965L18.4387 19.191C19.6429 19.6592 20.9313 19.7196 22.1622 19.3655C23.3931 19.0114 24.5187 18.2565 25.415 17.184C26.7021 15.6355 27.4249 13.5376 27.4249 11.3505C27.4249 9.16338 26.7021 7.06553 25.415 5.517C24.1245 3.97247 22.3763 3.1051 20.5537 3.1051C18.7311 3.1051 16.9829 3.97247 15.6925 5.517C14.7985 6.59239 14.1693 7.94308 13.8741 9.42022C13.579 10.8974 13.6295 12.4436 14.02 13.8885L4.64373 25.1385C4.45235 25.3679 4.32858 25.666 4.29123 25.9875ZM23.13 8.259C23.8119 9.07975 24.1949 10.1915 24.1949 11.3505C24.1949 12.5095 23.8119 13.6212 23.13 14.442L17.9775 8.259C18.6614 7.44066 19.5879 6.98113 20.5537 6.98113C21.5196 6.98113 22.446 7.44066 23.13 8.259Z" fill="black"/>
</svg>
